<?xml version="1.0" encoding="UTF-8" standalone="no"?>
<svg
   xmlns:dc="http://purl.org/dc/elements/1.1/"
   xmlns:cc="http://creativecommons.org/ns#"
   xmlns:rdf="http://www.w3.org/1999/02/22-rdf-syntax-ns#"
   xmlns:svg="http://www.w3.org/2000/svg"
   xmlns="http://www.w3.org/2000/svg"
   xmlns:sodipodi="http://sodipodi.sourceforge.net/DTD/sodipodi-0.dtd"
   xmlns:inkscape="http://www.inkscape.org/namespaces/inkscape"
   version="1.0"
   width="681.000000pt"
   height="681.000000pt"
   viewBox="0 0 681.000000 681.000000"
   preserveAspectRatio="xMidYMid meet"
   id="svg6256"
   inkscape:version="0.91 r13725"
   sodipodi:docname="tao.svg">
  <metadata
     id="metadata6276">
    <rdf:RDF>
      <cc:Work
         rdf:about="">
        <dc:format>image/svg+xml</dc:format>
        <dc:type
           rdf:resource="http://purl.org/dc/dcmitype/StillImage" />
      </cc:Work>
    </rdf:RDF>
  </metadata>
  <defs
     id="defs6274" />
  <sodipodi:namedview
     pagecolor="#ffffff"
     bordercolor="#666666"
     borderopacity="1"
     objecttolerance="10"
     gridtolerance="10"
     guidetolerance="10"
     inkscape:pageopacity="0"
     inkscape:pageshadow="2"
     inkscape:window-width="1280"
     inkscape:window-height="750"
     id="namedview6272"
     showgrid="false"
     inkscape:zoom="0.61321586"
     inkscape:cx="425.625"
     inkscape:cy="425.625"
     inkscape:window-x="0"
     inkscape:window-y="25"
     inkscape:window-maximized="1"
     inkscape:current-layer="svg6256" />
  <g
     transform="translate(0.000000,681.000000) scale(0.100000,-0.100000)"
     fill="#EE5544"
     stroke="none"
     id="g6258">
    <path
       d="m 3953,5592 c -190.0644,31.9353 -99.9016,-472.6567 -144.2617,-348.1738 26.6957,-319.2753 -367.6978,-173.5501 -561.6485,-225.5293 -216.7837,-27.7269 -446.4514,-8.6706 -653.5898,-81.5469 -217.7553,-205.8501 -10.2962,-492.7848 247.5625,-311.9844 310.6821,68.9699 630.6036,103.8429 948.9375,105.2344 0,-112.3333 0,-224.6667 0,-337 -319.8049,-30.9004 -641.5524,-38.2462 -961,-73 -131.4503,-53.6317 -206.8534,-197.5041 -179.3513,-334.6697 13.2085,-180.5805 -20.0373,-370.9449 41.5701,-542.9865 178.0945,-163.616 467.155,-59.5021 677.2558,-13.4004 200.9696,48.203 523.5001,40.0781 403.1172,-253.8985 -234.9,-106.1549 -523.1351,-34.2743 -776.457,-94.7832 C 2754.8599,3075.8332 2524.7037,3023.9546 2285,3004 c -95.006,-21.3237 -215.7762,8.8676 -272,-90 -270.1421,-200.029 5.4301,-591.739 271.1489,-349.1548 457.8373,247.6411 992.1553,239.6039 1497.9068,285.6184 538.5361,20.0522 1078.7236,14.6082 1617.2,11.7691 215.6529,-42.1919 434.3152,-84.9433 654.7443,-78.2327 250.7551,94.6977 225.9682,427.4121 -76.5991,367.9402 -515.4436,36.2944 -1032.252,63.6694 -1548.3657,22.4075 C 4313.7229,3186.9446 4024.5633,3102.255 4082,3303 c 3.7011,296.5339 420.1299,123.1071 614.1509,179.9568 275.6416,-48.0052 499.6784,103.9194 551.396,375.8088 59.2703,169.6196 332.031,424.5903 75.4531,551.2344 -408,0 -816,0 -1224,0 16.036,118.595 121.6655,459.9594 45,361 367.5707,-4.5004 735.344,-4.3802 1102.7031,-15.7031 301.6765,61.4542 185.2338,433.7504 -99.5332,350.3789 -328.9905,7.5724 -658.1164,3.1446 -987.1699,4.3242 -7.005,133.6562 13.7747,278.6209 -10.1409,405.3945 C 4099.4967,5583.4261 4037.5498,5607.1591 3953,5592 Z M 4965,4053 c -16.1641,-131.2474 -42.129,-319.7238 -213.4319,-277.3118 -213.6594,-2.759 -432.3467,-52.132 -642.7087,-13.7351 -84.8027,174.3343 -22.9772,433.0895 222.0742,345.2364 213.3465,2.4855 426.7102,2.0661 640.0664,2.8105 -2,-19 -4,-38 -6,-57 z m -1222,28 c 78.2666,-136.0599 -27.4357,-342.3214 18.9844,-340.0781 C 3536.0678,3647.6055 3251.8001,3702.36 3008,3718 c -126.437,284.5088 185.2537,390.7741 409.8281,360.9883 107.946,0.3895 219.5008,35.6999 325.1719,2.0117 z"
       id="path6260"
       inkscape:connector-curvature="0" />
    <path
       d="m 1141,5191 c -226.92021,-132.6881 -44.6185,-631.8247 231.75,-566.3438 202.7665,25.2485 573.8761,231.1471 224.3145,371.8946 C 1457.7697,5058.4823 1298.5855,5262.0287 1141,5191 Z"
       id="path6262"
       inkscape:connector-curvature="0" />
    <path
       d="m 615,3657 c -10.54517,-223.2894 155.81805,-567.1247 435.5625,-518.2988 185.1956,60.892 418.253,229.9325 495.9844,382.205 C 1351.3782,3711.002 1036.4834,3628.2004 786,3670 c -57.12833,-0.4626 -115.39538,3.5805 -171,-13 z"
       id="path6264"
       inkscape:connector-curvature="0" />
    <path
       d="m 5345,2681 c -196.9114,0.1808 -59.6072,-306.9011 -249.6041,-251.147 -322.8722,-13.4926 -648.4528,-22.1104 -968.8959,-53.5718 -219.5929,-155.5594 -20.4863,-437.536 206.2344,-288.4062 198.7072,93.124 267.9564,-53.2292 287.2656,-222.875 312.8474,-175.4776 156.428,411.6446 462,284 175.1859,57.8026 194.492,-101.4568 154.8799,-242.7998 3.9586,-274.988 -228.6094,-468.2911 -496.8799,-438.8252 -206.8391,-18.1768 -414.5592,-17.8501 -622,-17.375 28.9495,-123.3277 111.4417,-270.0606 224.2647,-325.5662 274.7517,-80.1273 602.3559,-173.77033 852.7353,22.1912 216.7988,135.4679 272.4876,417.127 292.9263,654.5281 4.2966,137.6087 25.2438,368.1317 213.7702,308.8469 171.5102,-94.26 545.842,237.0849 251.364,289.2402 -193.2398,20.1707 -439.2798,-6.7653 -422.0605,257.9942 -50.4626,43.0754 -125.6364,33.0542 -186,23.7656 z"
       id="path6266"
       inkscape:connector-curvature="0" />
    <path
       d="M 2910,2324 C 2675.1297,2279.3157 2549.812,2071.5388 2408.3438,1904.5781 2332.0063,1685.5708 1911.8468,1399.6165 2247,1209 c 326.8913,-22.3517 657.1177,40.192 972.7107,120.9863 251.2591,99.6946 379.4596,376.297 329.6643,636.3418 -33.119,244.445 -298.9668,411.3975 -537.2285,371.1192 C 2977.8857,2335.3011 2943.3649,2332.6107 2910,2324 Z m 209,-330 c 103.436,-56.0307 46.5546,-182.5144 61,-277.6528 -107.7476,-183.6331 -396.5396,-159.0734 -586.25,-175.941 -19.7779,155.6796 236.354,458.1622 438.25,508.5938 36.7112,-3.6104 61.1517,-32.917 87,-55 z"
       id="path6268"
       inkscape:connector-curvature="0" />
    <path
       d="M 1639,2160 C 1341.6573,2000.4935 997.29598,1887.5368 657.39062,1953.3906 503.47649,1795.4804 667.35663,1348.0949 957.47266,1401.7188 1213.1263,1454.651 1477.5214,1636.3017 1580,1883 c 1.9643,47.225 200.3565,310.7605 59,277 z"
       id="path6270"
       inkscape:connector-curvature="0" />
  </g>
</svg>
